<?xml version="1.0" encoding="utf-8"?>
<!-- Generator: Adobe Illustrator 27.5.0, SVG Export Plug-In . SVG Version: 6.00 Build 0)  -->
<svg version="1.1" xmlns="http://www.w3.org/2000/svg" xmlns:xlink="http://www.w3.org/1999/xlink" x="0px" y="0px"
	 viewBox="0 0 1200 1200" style="enable-background:new 0 0 1200 1200;" xml:space="preserve">
<g id="Background">
	<rect style="fill:#F2F9FF;" width="1200" height="1200"/>
</g>
<g id="Graphic_elements">
	<g>
		<defs>
			<rect id="SVGID_1_" width="1200" height="1200"/>
		</defs>
		<clipPath id="SVGID_00000026850199383157521150000005039904948872724631_">
			<use xlink:href="#SVGID_1_"  style="overflow:visible;"/>
		</clipPath>
		
			<linearGradient id="SVGID_00000176013100814514767800000015363948968714774161_" gradientUnits="userSpaceOnUse" x1="25.0243" y1="213.4633" x2="267.6401" y2="213.4633">
			<stop  offset="0" style="stop-color:#FFFFFF"/>
			<stop  offset="1" style="stop-color:#5494C6"/>
		</linearGradient>
		
			<polygon style="opacity:0.58;clip-path:url(#SVGID_00000026850199383157521150000005039904948872724631_);fill:url(#SVGID_00000176013100814514767800000015363948968714774161_);" points="
			218.66,-182.681 0,64.313 0,609.608 218.66,362.613 		"/>
		
			<linearGradient id="SVGID_00000085931759649337902350000012918484430226243229_" gradientUnits="userSpaceOnUse" x1="5933.0151" y1="33.0514" x2="6065.2642" y2="33.0514" gradientTransform="matrix(-1 0 0 1 6176.7734 0)">
			<stop  offset="0" style="stop-color:#FFFFFF"/>
			<stop  offset="1" style="stop-color:#5494C6"/>
		</linearGradient>
		
			<polygon style="clip-path:url(#SVGID_00000026850199383157521150000005039904948872724631_);fill:url(#SVGID_00000085931759649337902350000012918484430226243229_);" points="
			138.208,-182.885 257.399,-48.25 257.399,248.988 138.208,114.353 		"/>
		<g style="clip-path:url(#SVGID_00000026850199383157521150000005039904948872724631_);">
			<polygon style="fill:#70B5E0;" points="23.369,221.798 22.082,218.698 22.082,-96.649 23.369,-93.549 			"/>
			<polygon style="fill:#76BAE3;" points="31.184,229.612 29.897,226.512 29.897,-88.835 31.184,-85.735 			"/>
			<polygon style="fill:#7DBEE5;" points="38.998,237.427 37.711,234.327 37.711,-81.02 38.998,-77.92 			"/>
			<polygon style="fill:#83C3E8;" points="46.813,245.242 45.526,242.142 45.526,-73.205 46.813,-70.105 			"/>
			<polygon style="fill:#89C8EB;" points="54.627,253.056 53.34,249.956 53.34,-65.391 54.627,-62.291 			"/>
			<polygon style="fill:#90CDED;" points="62.442,260.871 61.155,257.771 61.155,-57.576 62.442,-54.476 			"/>
			<polygon style="fill:#96D1F0;" points="70.257,268.685 68.97,265.586 68.97,-49.762 70.257,-46.662 			"/>
			<polygon style="fill:#9DD6F2;" points="78.071,276.5 76.784,273.4 76.784,-41.947 78.071,-38.847 			"/>
			<polygon style="fill:#A3DBF5;" points="85.886,284.315 84.599,281.215 84.599,-34.132 85.886,-31.032 			"/>
			<polygon style="fill:#A9E0F8;" points="93.701,292.129 92.414,289.029 92.414,-26.318 93.701,-23.218 			"/>
			<polygon style="fill:#B0E4FA;" points="101.515,299.944 100.228,296.844 100.228,-18.503 101.515,-15.403 			"/>
			<polygon style="fill:#B6E9FD;" points="109.33,307.759 108.043,304.659 108.043,-10.688 109.33,-7.589 			"/>
		</g>
		
			<linearGradient id="SVGID_00000049940090403892647020000003748127530602958260_" gradientUnits="userSpaceOnUse" x1="1013.5251" y1="1088.309" x2="1256.141" y2="1088.309">
			<stop  offset="0" style="stop-color:#FFFFFF"/>
			<stop  offset="1" style="stop-color:#5494C6"/>
		</linearGradient>
		
			<polygon style="opacity:0.58;clip-path:url(#SVGID_00000026850199383157521150000005039904948872724631_);fill:url(#SVGID_00000049940090403892647020000003748127530602958260_);" points="
			1207.16,692.164 988.501,939.159 988.501,1484.453 1207.16,1237.459 		"/>
		
			<linearGradient id="SVGID_00000113338406489454766580000004714022586274331303_" gradientUnits="userSpaceOnUse" x1="5153.145" y1="1217.0153" x2="5285.394" y2="1217.0153" gradientTransform="matrix(-1 0 0 1 6176.7734 0)">
			<stop  offset="0" style="stop-color:#FFFFFF"/>
			<stop  offset="1" style="stop-color:#5494C6"/>
		</linearGradient>
		
			<polygon style="clip-path:url(#SVGID_00000026850199383157521150000005039904948872724631_);fill:url(#SVGID_00000113338406489454766580000004714022586274331303_);" points="
			918.078,1001.078 1037.269,1135.714 1037.269,1432.952 918.078,1298.316 		"/>
		<g style="clip-path:url(#SVGID_00000026850199383157521150000005039904948872724631_);">
			<polygon style="fill:#70B5E0;" points="1123.23,1037.65 1124.516,1034.55 1124.516,719.203 1123.23,722.303 			"/>
			<polygon style="fill:#76BAE3;" points="1115.415,1045.465 1116.702,1042.365 1116.702,727.018 1115.415,730.117 			"/>
			<polygon style="fill:#7DBEE5;" points="1107.6,1053.279 1108.887,1050.179 1108.887,734.832 1107.6,737.932 			"/>
			<polygon style="fill:#83C3E8;" points="1099.786,1061.094 1101.073,1057.994 1101.073,742.647 1099.786,745.747 			"/>
			<polygon style="fill:#89C8EB;" points="1091.971,1068.908 1093.258,1065.809 1093.258,750.461 1091.971,753.561 			"/>
			<polygon style="fill:#90CDED;" points="1084.156,1076.723 1085.443,1073.623 1085.443,758.276 1084.156,761.376 			"/>
			<polygon style="fill:#96D1F0;" points="1076.342,1084.538 1077.629,1081.438 1077.629,766.091 1076.342,769.191 			"/>
			<polygon style="fill:#9DD6F2;" points="1068.527,1092.352 1069.814,1089.252 1069.814,773.905 1068.527,777.005 			"/>
			<polygon style="fill:#A3DBF5;" points="1060.713,1100.167 1061.999,1097.067 1061.999,781.72 1060.713,784.82 			"/>
			<polygon style="fill:#A9E0F8;" points="1052.898,1107.982 1054.185,1104.882 1054.185,789.535 1052.898,792.635 			"/>
			<polygon style="fill:#B0E4FA;" points="1045.083,1115.796 1046.37,1112.696 1046.37,797.349 1045.083,800.449 			"/>
			<polygon style="fill:#B6E9FD;" points="1037.269,1123.611 1038.556,1120.511 1038.556,805.164 1037.269,808.264 			"/>
		</g>
	</g>
</g>
</svg>
