<?xml version="1.0" encoding="utf-8"?>
<!-- Generator: Adobe Illustrator 21.0.0, SVG Export Plug-In . SVG Version: 6.00 Build 0)  -->
<svg version="1.1" id="Layer_1" xmlns="http://www.w3.org/2000/svg" xmlns:xlink="http://www.w3.org/1999/xlink" x="0px" y="0px"
	 viewBox="0 0 249 91.7" style="enable-background:new 0 0 249 91.7;" xml:space="preserve">
<style type="text/css">
	.st0{fill:#CB245A;}
	.st1{fill:#FFFFFF;}
	.st2{fill:#ED2A5D;}
	.st3{fill:#4D2E90;}
	.st4{fill:#69459A;}
	.st5{fill:#7260A9;}
	.st6{fill:#126A9D;}
	.st7{fill:#1D855D;}
	.st8{fill:#58BA61;}
	.st9{fill:#8DC63F;}
	.st10{fill:#FCD55D;}
	.st11{fill:#F0C219;}
	.st12{fill:#D3DD29;}
	.st13{fill:#BED754;}
	.st14{fill:#444445;}
	.st15{fill:#888888;}
	.st16{font-family:'ZonaPro-Bold';}
	.st17{font-size:10.8748px;}
	.st18{fill:none;stroke:#EAEAEA;stroke-miterlimit:10;}
</style>
<g>
	<g id="XMLID_287_">
		<g id="XMLID_288_">
			<g id="XMLID_289_">
				<g id="XMLID_326_">
					<g id="XMLID_327_">
						<g id="XMLID_328_">
							<path class="st0" d="M35.6,21c2.3-4.6,7.5-5.2,12.9-2.7c3.1,1.5,12.1,6.5,11.5,10.8c-0.4,2.3-3.1,3.1-4.8,3.6
								c-2.1,0.8-4.2,1.9-6.1,3.1c-5.8,3.6-10.9,9-14.4,15c-4.6,2.1-6.7,0-4.4-4.6c1.5-7.5,3.1-14.8,4.8-22.3
								C34.8,22.9,35,21.8,35.6,21z"/>
							<path class="st1" d="M31.2,52.5c-1.2,0-1.9-0.4-2.3-0.8c-0.6-0.6-1.5-2.3,0.2-5.8c1.3-6.7,2.9-13.6,4.2-20.2l0.4-1.9
								c0.2-1.2,0.6-2.3,1.2-3.3l0,0c2.5-4.8,7.9-6,14-3.1c1.9,1,5,2.7,7.3,4.4c3.5,2.7,5,5.2,4.6,7.3c-0.4,2.5-2.9,3.5-4.8,4
								c-0.2,0-0.4,0.2-0.6,0.2c-2.1,0.8-4,1.9-6.1,3.1C43.7,40,38.7,45.2,35,51.2l-0.2,0.2l-0.2,0.2C33.1,52.3,31.9,52.5,31.2,52.5
								z M42.5,17.7c-2.7,0-5,1.3-6.1,3.6l0,0c-0.4,0.8-0.8,1.7-1,2.9L35,26.2c-1.3,6.7-2.9,13.4-4.2,20.2v0.2l0,0
								c-1,2.1-1,3.5-0.4,3.8c0.4,0.4,1.5,0.6,3.6-0.4c3.8-6.1,9-11.5,14.6-15c2.1-1.3,4.2-2.3,6.3-3.3c0.2,0,0.4-0.2,0.6-0.2
								c1.5-0.6,3.5-1.2,3.6-2.7c0.6-3.3-6.3-7.7-10.9-10C46,18.1,44.2,17.7,42.5,17.7z"/>
						</g>
					</g>
				</g>
				<g id="XMLID_323_">
					<g id="XMLID_324_">
						<g id="XMLID_325_">
							<path class="st2" d="M30.4,56.7c2.3,4.4,4.8,4,5.2-1c-0.6-4.6-1-9.4-1.2-14c-0.4-6.9,0.2-14,1.7-20.7
								c2.1-9-10.4-3.1-13.6-1.5c-3.6,1.9-7.3,4-7.9,8.5c-0.8,5.6,5.6,12.7,8.5,17.3C25.6,48.8,27.9,52.9,30.4,56.7z"/>
							<path class="st1" d="M33.5,60.8c-1,0-2.3-0.8-3.8-3.5l-7.3-11.7c-0.6-1-1.3-2.1-2.3-3.3c-3.1-4.6-6.9-10-6.1-14.8
								c0.6-4.8,4.4-7.1,8.3-9s10.9-5,13.8-2.7c1.3,1,1.5,2.7,1,5.2c-1.5,6.3-2.1,13.3-1.7,20.6c0.2,5,0.6,9.6,1.2,14l0,0l0,0
								c-0.4,3.6-1.5,4.6-2.5,4.8C33.9,60.6,33.7,60.8,33.5,60.8z M33.1,16.8c-2.3,0-5.8,1.2-10,3.3c-3.6,1.7-6.9,3.8-7.5,7.7
								c-0.6,4,3.1,9.2,6,13.3c0.8,1.2,1.7,2.3,2.3,3.5l7.3,11.9c1.2,2.3,2.1,2.7,2.3,2.7c0.4,0,1-0.8,1.2-3.3
								c-0.6-4.4-0.8-9-1.2-14c-0.4-7.5,0.2-14.4,1.7-20.9c0.4-1.7,0.2-2.9-0.4-3.3C34.4,17,33.9,16.8,33.1,16.8z"/>
						</g>
					</g>
				</g>
				<g id="XMLID_320_">
					<g id="XMLID_321_">
						<g id="XMLID_322_">
							<path class="st3" d="M7.4,31.4c0.8-1.5,1.5-2.9,2.3-3.8c4-4.4,6.3,1.5,7.9,3.8c2.7,4,5,8.3,8.1,12.1
								c3.1,3.8,6.3,7.7,9.2,11.7c1.3,1.9,3.3,6.3-1.9,5.8l0,0c-7.1-2.5-14.4-4.8-21.5-7.5c-2.5-1-5-2.5-6.5-5
								c-1.2-1.9-1.5-4.4-1.2-6.7C4.3,38.1,5.6,34.4,7.4,31.4z"/>
							<path class="st1" d="M34.1,61.9c-0.4,0-0.8,0-1.2,0h-0.2c-1.9-0.6-3.8-1.3-5.8-1.9c-5.2-1.7-10.6-3.5-15.8-5.6
								c-3.3-1.3-5.6-3.1-6.9-5.2c-1.5-2.5-1.5-5.4-1.3-7.3c0.4-3.3,1.5-6.7,3.5-10.8c0.8-1.7,1.5-3.1,2.3-4.2l0,0l0,0
								c1.3-1.3,2.7-1.9,3.8-1.7c2.3,0.4,3.6,2.9,4.8,4.8c0.2,0.4,0.6,0.8,0.8,1.2c0.8,1.2,1.3,2.1,2.1,3.3c1.9,2.9,3.8,6,6,8.8
								c1,1.2,1.9,2.5,3.1,3.6c2.1,2.7,4.2,5.4,6.3,8.1c1,1.3,2.3,4,1.3,5.8C36.4,61.3,35.4,61.9,34.1,61.9z M33.3,60
								c0.8,0,1.9,0.2,2.1-0.4c0.4-0.8-0.2-2.7-1.2-3.8c-1.9-2.7-4.2-5.4-6.3-8.1c-1-1.2-2.1-2.5-3.1-3.6c-2.3-2.9-4.2-6-6.1-8.8
								c-0.6-1-1.3-2.1-2.1-3.1c-0.2-0.4-0.6-0.8-0.8-1.3c-0.6-1.7-1.9-3.8-3.3-4c-0.6-0.2-1.5,0.4-2.3,1.2
								c-0.8,1.2-1.5,2.5-2.1,3.8l0,0c-1.9,3.8-3.1,7.1-3.3,10.2c-0.2,1.7-0.2,4.2,1.2,6.1c1.2,1.9,3.1,3.5,6,4.6
								c5.2,2.1,10.4,3.8,15.6,5.6C29.5,58.8,31.4,59.4,33.3,60z"/>
						</g>
					</g>
				</g>
				<g id="XMLID_317_">
					<g id="XMLID_318_">
						<g id="XMLID_319_">
							<path class="st4" d="M3.1,58.1c-0.8-3.6-1.5-8.6,3.1-8.8c3.6,1.3,6.7,4,10.4,5.2c4.6,1.5,9.6,2.5,14.6,3.5
								c2.7,0.4,5.8,0.6,8.5,1.3c4.2,1.2,5.4,4,1.2,6c-5.4,2.5-11.5,4.2-17.1,6.3c-2.3,1-4.8,1.7-7.3,1.9c-3.1,0.2-5.8-1.2-7.9-3.6
								C5.4,66.5,3.9,62.1,3.1,58.1z"/>
							<path class="st1" d="M15.6,74.2c-3.1,0-6-1.3-8.1-3.8c-2.5-2.9-4.2-6.7-5.4-12.1l0,0C1.6,55.8,1,52.1,2.8,50
								c0.8-1,1.9-1.5,3.5-1.5h0.2h0.2c1.7,0.8,3.5,1.7,5,2.5c1.7,1,3.5,2.1,5.4,2.7c4.6,1.5,9.6,2.5,14.4,3.5
								c1,0.2,2.1,0.4,3.3,0.4c1.7,0.2,3.6,0.4,5.2,0.8c2.7,0.8,4.2,2.1,4.4,3.6c0,0.8-0.2,2.5-3.3,3.8c-3.6,1.7-7.7,3.1-11.5,4.4
								c-1.9,0.6-3.8,1.3-5.8,1.9c-2.5,1-5,1.7-7.7,1.9C16,74.2,15.8,74.2,15.6,74.2z M6,50.2c-0.8,0-1.5,0.4-1.9,1
								c-1,1.2-1,3.5-0.2,6.9l0,0c1.2,4.8,2.7,8.6,5,11.3c1.9,2.3,4.4,3.5,7.1,3.3c2.5-0.2,4.8-1,7.1-1.7c1.9-0.8,3.8-1.3,5.8-1.9
								c3.8-1.3,7.7-2.7,11.3-4.2c1.3-0.6,2.3-1.5,2.1-2.1c0-0.8-1.2-1.7-3.3-2.3c-1.5-0.4-3.3-0.6-5-0.8c-1.2-0.2-2.3-0.2-3.3-0.4
								c-4.8-0.8-9.8-1.9-14.6-3.5c-2.1-0.8-3.8-1.7-5.8-2.9C9.1,51.7,7.6,50.8,6,50.2z"/>
						</g>
					</g>
				</g>
				<g id="XMLID_314_">
					<g id="XMLID_315_">
						<g id="XMLID_316_">
							<path class="st5" d="M17.2,80.7c-1.7-1-3.8-1.9-4.4-4c-0.4-2.3,1.3-3.3,2.9-3.8c4.2-1.7,8.3-3.8,12.3-6.1
								c5.8-3.6,10.6-9,17.7-10l-8.5,20.6C33.9,85.1,23.9,84,17.2,80.7z"/>
							<path class="st1" d="M27.1,84c-3.6,0-7.5-1.2-10.4-2.7l0,0c-1.7-1-4-2.1-4.8-4.4l0,0c-0.6-3.3,2.3-4.4,3.5-4.8
								c4-1.5,8.1-3.6,12.1-6.1c1.7-1,3.5-2.3,5-3.5c3.8-2.9,7.9-6,13.1-6.7l1.5-0.2l-9.2,21.9c-1.2,2.9-3.1,4.8-6,5.8
								C30.4,83.8,28.9,84,27.1,84z M17.7,80c4.8,2.5,10.2,3.1,13.8,1.7c2.3-0.8,4-2.5,5-4.8l7.9-19.2c-4,1-7.3,3.5-10.8,6.1
								c-1.7,1.2-3.3,2.5-5.2,3.6c-4,2.5-8.3,4.6-12.3,6.1c-1.9,0.8-2.7,1.5-2.3,2.9C14.3,78,16.2,79.2,17.7,80L17.7,80z"/>
						</g>
					</g>
				</g>
				<g id="XMLID_311_">
					<g id="XMLID_312_">
						<g id="XMLID_313_">
							<path class="st6" d="M53.8,68.1c1.3,3.5,0.8,7.3-1.3,10.2c-3.1,4-10.2,6.3-15,6.9c-1.2,0.2-2.3,0.2-3.3-0.2
								c-2.3-0.8-2.9-3.1-1.7-5.2c1.9-3.1,4.2-5.8,5.6-9.2c1.3-3.1,1.9-6.1,2.7-9.4c0.6-2.3,1.7-6.5,4-7.7c2.7-1.3,4.4,1.7,5.2,3.8
								C50,57.3,53.8,68.1,53.8,68.1z"/>
							<path class="st1" d="M36,86.1c-0.8,0-1.3,0-2.1-0.4c-1.3-0.4-2.1-1.3-2.7-2.5c-0.4-1.2-0.4-2.7,0.4-3.8
								c0.8-1.2,1.5-2.3,2.3-3.5c1.3-1.9,2.5-3.6,3.3-5.6c1-2.1,1.5-4.6,2.1-6.9c0.2-0.8,0.4-1.5,0.6-2.3l0.2-0.4
								c0.8-2.7,1.7-6.7,4.4-7.9c1-0.4,1.9-0.6,2.9-0.2c1.7,0.8,2.9,2.9,3.5,4.4c3.6,9.8,4,10.6,4,10.8l0,0
								c1.3,3.6,0.8,7.9-1.5,10.9c-3.1,4.2-10.4,6.5-15.6,7.3C37.1,85.9,36.6,86.1,36,86.1z M46,54c-0.2,0-0.6,0-0.8,0.2
								c-1.9,1-2.9,4.6-3.5,6.9l-0.2,0.4c-0.2,0.8-0.4,1.5-0.6,2.3c-0.6,2.3-1.2,4.8-2.1,7.1c-1,2.1-2.3,4-3.5,6
								c-0.8,1.2-1.5,2.1-2.1,3.3c-0.4,0.8-0.6,1.7-0.4,2.5c0.2,0.8,0.8,1.2,1.5,1.5c1,0.4,2.1,0.2,2.9,0.2
								c5.4-0.8,11.9-3.1,14.4-6.5c1.9-2.7,2.5-6.1,1.3-9.2l0,0l-4-10.8c-0.8-1.9-1.5-3.1-2.5-3.5C46.4,54,46.2,54,46,54z"/>
						</g>
					</g>
				</g>
				<g id="XMLID_308_">
					<g id="XMLID_309_">
						<g id="XMLID_310_">
							<path class="st7" d="M50,70.4c3.6,7.5,11.1-1.3,12.1-7.7c1-6.3-1.7-9.6-7.3-10L43.1,55c-5.6-0.4-3.8,2.1-0.2,6.3
								C42.7,61.1,46.9,64.2,50,70.4z"/>
							<path class="st1" d="M53.5,74c-1.3,0-3.1-0.8-4.4-3.5c-2.9-6-6.9-8.8-6.9-8.8l0,0l0,0c-2.5-2.9-4-5-3.3-6.5
								c0.6-1.3,2.5-1.3,4.2-1.2l11.7-2.3H55c3.1,0.2,5.4,1.3,6.7,3.1c1.5,1.9,1.9,4.6,1.3,7.9c-0.4,2.3-1.5,5-3.1,7.1
								c-1.7,2.5-3.6,3.8-5.6,4.2C54,74,53.8,74,53.5,74z M43.3,60.6c0.8,0.6,4.6,3.5,7.5,9.4l0,0c0.8,1.7,1.9,2.5,3.3,2.3
								c2.9-0.4,6.5-5.6,7.3-9.8c0.4-2.9,0.2-5.2-1.2-6.5c-1.2-1.3-2.9-2.1-5.4-2.5l-11.7,2.3h-0.2c-2.3-0.2-2.7,0.2-2.7,0.2
								C40.2,56.3,40.6,57.3,43.3,60.6z"/>
						</g>
					</g>
				</g>
				<g>
					<path class="st1" d="M38.3,64c-0.2,0-0.6,0-1-0.2c-1.2-0.2-1.9-1-2.1-1.7c-1.7,0.6-3.6,0.4-5.2-0.8c-1.3-1-1.5-2.1-1.7-2.7
						c0-0.6,0-1.2,0.4-1.5c-2.5-1.2-4.2-3.5-4.4-6c-0.2-1.5,0.4-2.9,1.3-3.6c0.6-0.4,1.2-0.6,1.9-0.6l0,0c-0.6-1.2-0.8-2.3-0.6-3.5
						c0.2-1.9,1.3-3.6,3.1-5c2.3-1.7,4.8-2.3,6.7-1.7c0.8,0.2,1.3,0.6,1.9,1.2c1-0.8,2.1-1.2,3.5-1.3c1.7-0.2,4,0.4,6.3,1.3
						c1.2,0.6,4,2.1,4.8,4c0.4,0.8,0.6,2.3-1.3,3.5c-3.8,2.7-6.9,7.5-7.3,8.3c-0.6,1.5-1.2,2.5-1.9,3.1c0,0.2,0,0.6,0,0.8l-0.2,1.9
						c-0.2,1.5-1,2.9-2.1,3.6C39.8,63.8,39.1,64,38.3,64z M37.1,59.4l-0.4,1.7c-0.2,0.6,0.2,1,1,1.2c0.8,0.2,1.3,0,1.7-0.4
						c0.8-0.6,1.2-1.3,1.3-2.5l0.2-1.9c0-0.4,0-0.6,0-1V56l0.6-0.2c0.2-0.2,1-0.6,1.5-2.5l0,0l0,0c0.2-0.2,3.5-5.8,7.9-8.8
						c1-0.6,0.8-1.2,0.8-1.5c-0.8-2.1-6.3-4.8-9.4-4.4l0,0C41,38.7,40,39.2,39.1,40l-1,1l-0.6-1.2c-0.2-0.6-0.8-1-1.3-1.2
						c-1.3-0.4-3.5,0.2-5.2,1.5c-1.3,1-2.3,2.3-2.3,3.8c-0.2,1.3,0.4,2.9,1.5,4l2.7,2.9l-3.6-1.5c-1.2-0.4-1.9-0.6-2.5-0.2
						s-0.8,1.2-0.6,2.1c0.2,2.1,1.7,4,4.2,4.8l1.3,0.4l-1,1c-0.2,0.2-0.6,0.8-0.6,1.2c0,0.6,0.4,1,1,1.5c1.2,1,2.9,1,4.4,0
						L37.1,59.4z"/>
				</g>
				<g id="XMLID_305_">
					<g id="XMLID_306_">
						<g id="XMLID_307_">
							<path class="st8" d="M56.3,58.1c7.5,1.2,4.8-8.6,0.6-12.5s-7.1-2.1-10.4,1.7L41,55.6c-3.3,3.8-1.7,5.8,2.7,3.8
								C48.1,57.5,50.2,57.1,56.3,58.1z"/>
							<path class="st1" d="M40.8,60.9c-1.2,0-1.7-0.4-2.1-0.8c-0.4-0.6-1-2.1,1.5-5l5.6-8.3c1.7-2.1,3.8-4,6.1-4.2
								c1.7-0.2,3.5,0.8,5.4,2.3c3.1,2.9,5.6,8.6,4,11.7c-0.6,1-1.7,2.7-5.2,2.1l0,0c-6.1-0.8-7.9-0.6-12.1,1.3
								C42.7,60.8,41.6,60.9,40.8,60.9z M47.3,47.9l-5.6,8.3C40,58.1,40.2,59,40.2,59c0.2,0.2,1.2,0.4,3.1-0.6
								c4.4-1.9,6.5-2.3,13.1-1.3l0,0c1.7,0.2,2.9-0.2,3.5-1.2c1.2-2.3-0.8-7.1-3.6-9.8c-1.5-1.3-2.9-1.9-4-1.9
								C50.8,44.4,49.2,45.4,47.3,47.9z"/>
						</g>
					</g>
				</g>
				<g id="XMLID_302_">
					<g id="XMLID_303_">
						<g id="XMLID_304_">
							<path class="st9" d="M37.1,46.7c-1.2-4.2,1.2-8.3,5.2-8.6c4-0.6,13.3,4.2,9,7.3c-4.2,2.9-7.5,8.3-7.5,8.3
								c-1.5,4.2-3.6,4.2-5-0.2L37.1,46.7z"/>
							<path class="st1" d="M41.6,57.5C41.4,57.5,41.4,57.5,41.6,57.5c-1,0-2.3-0.8-3.3-3.8l-1.9-6.7c-0.8-2.5-0.4-4.8,1-6.7
								c1.2-1.7,2.9-2.9,5-3.1c1.7-0.2,4,0.4,6.3,1.3c1.2,0.6,3.8,1.9,4.6,4c0.4,0.8,0.6,2.3-1.3,3.5c-3.8,2.7-6.7,7.3-7.1,8.1
								C43.7,56.7,42.3,57.5,41.6,57.5z M38.1,46.3l1.9,6.7c0.6,2.1,1.3,2.7,1.5,2.7l0,0c0.4,0,1-0.6,1.7-2.5l0,0l0,0
								c0.2-0.2,3.3-5.6,7.7-8.6c1-0.6,0.8-1.2,0.6-1.3c-0.8-2.1-6.1-4.6-9-4.2c-1.5,0.2-2.9,1-3.8,2.3
								C37.7,42.5,37.5,44.4,38.1,46.3L38.1,46.3z"/>
						</g>
					</g>
				</g>
				<g id="XMLID_299_">
					<g id="XMLID_300_">
						<g id="XMLID_301_">
							<path class="st10" d="M39.8,56.1c1.5-1.5,2.5-1,2.1,1.3l-0.2,1.7c-0.4,2.3-2.1,3.8-4,3.5c-1.9-0.4-2.3-2.1-0.8-3.6L39.8,56.1
								z"/>
							<path class="st1" d="M38.5,63.8c-0.2,0-0.6,0-0.8-0.2c-1.2-0.2-1.9-1-2.3-1.9c-0.4-1,0-2.1,1.2-3.3l2.9-3.1
								c1.2-1.3,2.1-1.3,2.7-1c0.6,0.2,1.2,1,1,3.1l-0.4,1.9c-0.2,1.5-1,2.9-2.1,3.6C39.8,63.4,39.2,63.8,38.5,63.8z M40.4,56.7
								l-2.9,3.1c-0.6,0.6-0.8,1.2-0.6,1.5c0.2,0.4,0.6,0.6,1,0.8c0.8,0.2,1.3,0,1.5-0.4c0.8-0.6,1.2-1.3,1.3-2.5l0.2-1.7
								c0-0.8,0-1.2,0-1.3C41,56.3,40.8,56.3,40.4,56.7L40.4,56.7z"/>
						</g>
					</g>
				</g>
				<g id="XMLID_296_">
					<g id="XMLID_297_">
						<g id="XMLID_298_">
							<path class="st11" d="M37.9,53.5c2.9-1.2,3.8,0.2,1.9,3.1l-1.5,2.1c-1.9,2.7-5.2,3.6-7.5,1.9c-2.1-1.7-1.5-4,1.3-5L37.9,53.5
								z"/>
							<path class="st1" d="M33.5,62.3c-1.2,0-2.1-0.4-3.1-1c-1.2-1-1.7-2.1-1.5-3.3c0.2-1.3,1.3-2.5,3.3-3.3l5.6-2.1
								c2.3-0.8,3.3-0.4,3.6,0.2c0.6,0.6,0.8,1.7-0.8,4L39.1,59c-1.2,1.7-2.9,2.9-4.6,3.1C34.1,62.3,33.9,62.3,33.5,62.3z
								 M38.3,54.4l-5.6,2.1c-1.2,0.4-1.9,1.2-2.1,1.9c-0.2,0.8,0.6,1.3,1,1.7c0.8,0.6,1.7,0.8,2.7,0.6c1.3-0.2,2.7-1.2,3.5-2.3
								l1.5-2.1c1-1.3,1-1.9,0.8-1.9l0,0C40,54,39.6,53.8,38.3,54.4L38.3,54.4z"/>
						</g>
					</g>
				</g>
				<g id="XMLID_293_">
					<g id="XMLID_294_">
						<g id="XMLID_295_">
							<path class="st12" d="M37.5,53.3c3.3,2.1,2.7,3.8-1.2,3.8h-3.1c-4,0-7.3-2.7-7.5-5.8c-0.2-3.3,2.3-4.2,5.6-2.1L37.5,53.3z"/>
							<path class="st1" d="M33.3,58.1c-4.4,0-8.1-2.9-8.3-6.7c-0.2-1.7,0.4-3.1,1.5-3.6c1.3-0.8,3.3-0.6,5.4,0.8l6.1,4
								c2.5,1.5,2.7,2.9,2.5,3.6c-0.2,0.8-1.2,1.7-4.2,1.7L33.3,58.1L33.3,58.1z M28.3,49c-0.4,0-0.6,0-0.8,0.2
								c-0.8,0.4-0.8,1.5-0.8,2.1c0.2,2.9,3.1,5,6.5,5l0,0h3.1c1.9,0,2.5-0.4,2.5-0.6c0,0-0.2-0.8-1.7-1.7l0,0L31,50
								C29.8,49.2,28.9,49,28.3,49z"/>
						</g>
					</g>
				</g>
				<g id="XMLID_290_">
					<g id="XMLID_291_">
						<g id="XMLID_292_">
							<path class="st13" d="M39.1,41.5c0-4.6-4.6-4.2-8.1-1.7s-3.6,6.7-0.2,9.6l6.3,5.4c3.5,2.9,5.4,1.5,4.2-2.7
								C41.6,51.9,39.2,46.2,39.1,41.5z"/>
							<path class="st1" d="M40.2,56.9c-0.8,0-2.1-0.4-3.6-1.7l-6.3-5.4c-1.9-1.5-2.9-3.6-2.7-5.8c0-2.1,1.2-4,3.1-5.4
								c2.7-1.9,5.4-2.5,7.3-1.5c1,0.4,2.1,1.5,2.1,4c0,4.4,2.3,10.2,2.3,10.2v0.2c0.8,3.3,0,4.4-1,5C41.2,56.9,40.8,56.9,40.2,56.9
								z M35.8,38.7c-1.2,0-2.9,0.6-4.2,1.7c-1.3,1-2.3,2.5-2.3,3.8c0,1.5,0.8,3.1,2.1,4.2l6.3,5.4c1.5,1.3,2.5,1.3,2.7,1.3
								c0.2-0.2,0.6-1,0.2-3.1c-0.2-0.6-2.3-6.1-2.3-10.8c0-1.3-0.4-2.1-1.2-2.5C36.7,38.9,36.4,38.7,35.8,38.7z"/>
						</g>
					</g>
				</g>
			</g>
		</g>
	</g>
	<g>
		<g id="XMLID_268_">
			<g id="XMLID_269_">
				<g id="XMLID_283_">
					<path id="XMLID_284_" class="st14" d="M148.9,41.7v8.6h-3.8v-8.6c0-2.3-1.2-3.5-3.3-3.5c-1.3,0-3.5,0.2-3.5,0.2v11.9h-3.8V29.3
						l0,0c2.1,0,3.8,1.7,3.8,3.8V35c0,0,2.5,0,4,0C146.8,34.8,148.9,36.7,148.9,41.7z"/>
				</g>
				<g id="XMLID_279_">
					<path id="XMLID_280_" class="st14" d="M167.6,38.7v11.9c0,0-6.7,0-8.5,0c-4.8,0-7.7-3.8-7.7-7.9s2.9-7.9,7.7-7.9
						c1.5,0,4.4,0,4.4,0l0,0C165.8,34.8,167.6,36.6,167.6,38.7z M163.7,38.3c0,0-2.3,0-3.8,0c-2.9,0-4.6,2.1-4.6,4.4
						s1.7,4.4,4.6,4.4c1.5,0,3.8,0,3.8,0V38.3z"/>
				</g>
				<g id="XMLID_276_">
					<path id="XMLID_277_" class="st14" d="M185.8,41.7v8.6H182v-8.6c0-2.3-1.2-3.5-3.3-3.5c-1.3,0-3.5,0-3.5,0v9
						c0,1.7-1.3,3.1-3.1,3.1h-0.8V34.8h3.8c0,0,2.5,0,4,0C183.9,34.8,185.8,36.7,185.8,41.7z"/>
				</g>
				<g id="XMLID_273_">
					<path id="XMLID_274_" class="st14" d="M193.5,38.3v5.4c0,2.7,0.4,2.9,2.5,2.9c0.8,0,1.9,0,1.9,0v1.3c0,1.5-1.3,2.7-2.9,2.7
						c-0.2,0-0.6,0-0.8,0c-2.5,0-4.6-1.5-4.6-4.8v-7.5l0,0V35l0,0v-3.5h0.4c1.9,0,3.5,1.5,3.5,3.5l0,0h4.2v3.3H193.5z"/>
				</g>
				<g id="XMLID_270_">
					<path id="XMLID_271_" class="st14" d="M201.6,36.4h0.4c1.9,0,3.5,1.5,3.5,3.5v10.6h-3.8V36.4z"/>
				</g>
				<g>
					<path class="st14" d="M131.8,42.1v5.6c-2.3,1.9-5.6,3.1-9,3.1c-6.1,0-11.1-4.8-11.1-10.8s5-10.6,10.9-10.6
						c3.5,0,6.3,1.2,8.3,3.1l-0.4,0.4c-1.2,1.3-3.1,1.7-4.8,1.2c-1-0.4-2.1-0.6-3.3-0.6c-3.6,0-6.7,3.1-6.7,6.7
						c0,3.8,3.1,6.9,6.7,6.9c1.9,0,3.5-0.6,4.8-1.3v-1.9h-2.1c-1.2,0-2.1-1-2.1-2.1v-1.5h6.3C130.9,40.2,131.8,41,131.8,42.1z"/>
				</g>
			</g>
			<g>
				<path class="st14" d="M108.6,35h-5.2l-4.6,4.8V29.4l0,0c-2.3,0-4,1.9-4,4v16.1h4v-4.2l1.3-1.3l3.6,5.6h4.8l-5.8-8.8L108.6,35z"
					/>
				<path class="st14" d="M86.9,46.2c-0.8,0-1.7,0-2.5,0c-1.9,0-3.5-1.2-4-2.7h8.1c1.9,0,3.5-1.5,3.5-3.5l0,0v-2.1l0,0
					c0-2.1-1.7-3.8-3.8-3.8c-1.7,0-3.6,0-4.4,0c-4.8,0-7.5,3.8-7.5,7.9s2.7,7.9,7.5,7.9c1.7,0,8.3,0,8.3,0l0,0
					c0-1.9-1.5-3.5-3.5-3.5L86.9,46.2z M84.6,37.1c0.6,0,1.7,0,2.5,0c1.2,0,1.9,1,1.9,1.9l0,0c0,0.8-0.8,1.5-1.5,1.5h-6.9
					C80.7,39.2,82.7,37.1,84.6,37.1z"/>
			</g>
			<path id="XMLID_286_" class="st14" d="M204,33.5c-1.2-1.2,0-4.4,0-4.4l0,0c2.5,0,4.4,2.1,4.4,4.4l0,0
				C208.5,33.5,205.4,34.6,204,33.5z"/>
		</g>
	</g>
	<text transform="matrix(1 0 0 1 80.0732 69.2975)" class="st15 st16 st17">SERVICES  [P] LTD.</text>
	<line class="st18" x1="227.1" y1="27.5" x2="227.1" y2="71.7"/>
</g>
</svg>
