<svg id="Layer_1" data-name="Layer 1" xmlns="http://www.w3.org/2000/svg" viewBox="0 0 226.01 71.12"><defs><style>.cls-1{fill:#cb245a;}.cls-15,.cls-2{fill:#fff;}.cls-3{fill:#ed2a5d;}.cls-4{fill:#4d2e90;}.cls-5{fill:#69459a;}.cls-6{fill:#7260a9;}.cls-7{fill:#126a9d;}.cls-8{fill:#1d855d;}.cls-9{fill:#58ba61;}.cls-10{fill:#8dc63f;}.cls-11{fill:#fcd55d;}.cls-12{fill:#f0c219;}.cls-13{fill:#d3dd29;}.cls-14{fill:#bed754;}.cls-15{isolation:isolate;font-size:10.87px;font-family:ArialMT, Arial;}.cls-16{letter-spacing:-0.02em;}.cls-17{letter-spacing:-0.07em;}.cls-18{fill:none;stroke:#eaeaea;stroke-miterlimit:10;}</style></defs><path class="cls-1" d="M34,6c2.3-4.6,7.5-5.2,12.9-2.7,3.1,1.5,12.1,6.5,11.5,10.8-.4,2.3-3.1,3.1-4.8,3.6a35,35,0,0,0-6.1,3.1,44,44,0,0,0-14.4,15c-4.6,2.1-6.7,0-4.4-4.6,1.5-7.5,3.1-14.8,4.8-22.3A3.31,3.31,0,0,1,34,6Z"/><path class="cls-2" d="M29.61,37.52a3.1,3.1,0,0,1-2.3-.8c-.6-.6-1.5-2.3.2-5.8,1.3-6.7,2.9-13.6,4.2-20.2l.4-1.9a9.33,9.33,0,0,1,1.2-3.3h0c2.5-4.8,7.9-6,14-3.1a61.45,61.45,0,0,1,7.3,4.4c3.5,2.7,5,5.2,4.6,7.3-.4,2.5-2.9,3.5-4.8,4-.2,0-.4.2-.6.2a43.82,43.82,0,0,0-6.1,3.1,47.09,47.09,0,0,0-14.3,14.8l-.2.2-.2.2A8.47,8.47,0,0,1,29.61,37.52Zm11.3-34.8a6.51,6.51,0,0,0-6.1,3.6h0a9.82,9.82,0,0,0-1,2.9l-.4,2c-1.3,6.7-2.9,13.4-4.2,20.2v.2h0c-1,2.1-1,3.5-.4,3.8.4.4,1.5.6,3.6-.4A47.62,47.62,0,0,1,47,20a63.48,63.48,0,0,1,6.3-3.3c.2,0,.4-.2.6-.2,1.5-.6,3.5-1.2,3.6-2.7.6-3.3-6.3-7.7-10.9-10A19,19,0,0,0,40.91,2.72Z"/><path class="cls-3" d="M28.81,41.72c2.3,4.4,4.8,4,5.2-1-.6-4.6-1-9.4-1.2-14A75.64,75.64,0,0,1,34.51,6c2.1-9-10.4-3.1-13.6-1.5-3.6,1.9-7.3,4-7.9,8.5-.8,5.6,5.6,12.7,8.5,17.3C24,33.82,26.31,37.92,28.81,41.72Z"/><path class="cls-2" d="M31.91,45.82c-1,0-2.3-.8-3.8-3.5l-7.3-11.7a25.13,25.13,0,0,0-2.3-3.3c-3.1-4.6-6.9-10-6.1-14.8.6-4.8,4.4-7.1,8.3-9s10.9-5,13.8-2.7c1.3,1,1.5,2.7,1,5.2a72.38,72.38,0,0,0-1.7,20.6c.2,5,.6,9.6,1.2,14h0c-.4,3.6-1.5,4.6-2.5,4.8C32.31,45.62,32.11,45.82,31.91,45.82Zm-.4-44c-2.3,0-5.8,1.2-10,3.3-3.6,1.7-6.9,3.8-7.5,7.7s3.1,9.2,6,13.3a35,35,0,0,1,2.3,3.5l7.3,11.9c1.2,2.3,2.1,2.7,2.3,2.7.4,0,1-.8,1.2-3.3-.6-4.4-.8-9-1.2-14A74.52,74.52,0,0,1,33.61,6c.4-1.7.2-2.9-.4-3.3A1.68,1.68,0,0,0,31.51,1.82Z"/><path class="cls-4" d="M5.81,16.42a21.07,21.07,0,0,1,2.3-3.8c4-4.4,6.3,1.5,7.9,3.8,2.7,4,5,8.3,8.1,12.1s6.3,7.7,9.2,11.7c1.3,1.9,3.3,6.3-1.9,5.8h0c-7.1-2.5-14.4-4.8-21.5-7.5a12.8,12.8,0,0,1-6.5-5,10.27,10.27,0,0,1-1.2-6.7A28,28,0,0,1,5.81,16.42Z"/><path class="cls-2" d="M32.51,46.92h-1.4c-1.9-.6-3.8-1.3-5.8-1.9-5.2-1.7-10.6-3.5-15.8-5.6a13.73,13.73,0,0,1-6.9-5.2,11.89,11.89,0,0,1-1.3-7.3,33.7,33.7,0,0,1,3.5-10.8,26.4,26.4,0,0,1,2.3-4.2h0c1.3-1.3,2.7-1.9,3.8-1.7,2.3.4,3.6,2.9,4.8,4.8.2.4.6.8.8,1.2.8,1.2,1.3,2.1,2.1,3.3,1.9,2.9,3.8,6,6,8.8a34.74,34.74,0,0,0,3.1,3.6L34,40c1,1.3,2.3,4,1.3,5.8A4,4,0,0,1,32.51,46.92Zm-.8-1.9c.8,0,1.9.2,2.1-.4.4-.8-.2-2.7-1.2-3.8-1.9-2.7-4.2-5.4-6.3-8.1-1-1.2-2.1-2.5-3.1-3.6-2.3-2.9-4.2-6-6.1-8.8a28.24,28.24,0,0,0-2.1-3.1,14.8,14.8,0,0,1-.8-1.3c-.6-1.7-1.9-3.8-3.3-4-.6-.2-1.5.4-2.3,1.2a28.17,28.17,0,0,0-2.1,3.8h0c-1.9,3.8-3.1,7.1-3.3,10.2a8.67,8.67,0,0,0,1.2,6.1,11.65,11.65,0,0,0,6,4.6c5.2,2.1,10.4,3.8,15.6,5.6C27.91,43.82,29.81,44.42,31.71,45Z"/><path class="cls-5" d="M1.51,43.12c-.8-3.6-1.5-8.6,3.1-8.8,3.6,1.3,6.7,4,10.4,5.2A129.75,129.75,0,0,0,29.61,43a83.17,83.17,0,0,1,8.5,1.3c4.2,1.2,5.4,4,1.2,6-5.4,2.5-11.5,4.2-17.1,6.3a23.16,23.16,0,0,1-7.3,1.9A9.55,9.55,0,0,1,7,54.92C3.81,51.52,2.31,47.12,1.51,43.12Z"/><path class="cls-2" d="M14,59.22a10.43,10.43,0,0,1-8.1-3.8c-2.5-2.9-4.2-6.7-5.4-12.1h0c-.5-2.5-1.1-6.2.7-8.3a4.13,4.13,0,0,1,3.5-1.5h.4c1.7.8,3.5,1.7,5,2.5a27.25,27.25,0,0,0,5.4,2.7,137.42,137.42,0,0,0,14.4,3.5,16.56,16.56,0,0,0,3.3.4,43.38,43.38,0,0,1,5.2.8c2.7.8,4.2,2.1,4.4,3.6,0,.8-.2,2.5-3.3,3.8A113.63,113.63,0,0,1,28,55.22c-1.9.6-3.8,1.3-5.8,1.9a25.58,25.58,0,0,1-7.7,1.9C14.41,59.22,14.21,59.22,14,59.22Zm-9.6-24a2.28,2.28,0,0,0-1.9,1c-1,1.2-1,3.5-.2,6.9h0c1.2,4.8,2.7,8.6,5,11.3a8.33,8.33,0,0,0,7.1,3.3,33.44,33.44,0,0,0,7.1-1.7,56.18,56.18,0,0,1,5.8-1.9c3.8-1.3,7.7-2.7,11.3-4.2,1.3-.6,2.3-1.5,2.1-2.1,0-.8-1.2-1.7-3.3-2.3a37.33,37.33,0,0,0-5-.8c-1.2-.2-2.3-.2-3.3-.4a96.72,96.72,0,0,1-14.6-3.5,34.9,34.9,0,0,1-5.8-2.9A12.06,12.06,0,0,0,4.41,35.22Z"/><path class="cls-6" d="M15.61,65.72c-1.7-1-3.8-1.9-4.4-4-.4-2.3,1.3-3.3,2.9-3.8a100.43,100.43,0,0,0,12.3-6.1c5.8-3.6,10.6-9,17.7-10l-8.5,20.6C32.31,70.12,22.31,69,15.61,65.72Z"/><path class="cls-2" d="M25.51,69a23.94,23.94,0,0,1-10.4-2.7h0c-1.7-1-4-2.1-4.8-4.4h0c-.6-3.3,2.3-4.4,3.5-4.8A68.67,68.67,0,0,0,25.91,51a44.63,44.63,0,0,0,5-3.5c3.8-2.9,7.9-6,13.1-6.7l1.5-.2-9.2,21.9a9.59,9.59,0,0,1-6,5.8A14.66,14.66,0,0,1,25.51,69Zm-9.4-4c4.8,2.5,10.2,3.1,13.8,1.7a8.45,8.45,0,0,0,5-4.8l7.9-19.2c-4,1-7.3,3.5-10.8,6.1-1.7,1.2-3.3,2.5-5.2,3.6a70.26,70.26,0,0,1-12.3,6.1c-1.9.8-2.7,1.5-2.3,2.9.5,1.6,2.4,2.8,3.9,3.6Z"/><path class="cls-7" d="M52.21,53.12a10.86,10.86,0,0,1-1.3,10.2c-3.1,4-10.2,6.3-15,6.9a6.07,6.07,0,0,1-3.3-.2c-2.3-.8-2.9-3.1-1.7-5.2,1.9-3.1,4.2-5.8,5.6-9.2a59.61,59.61,0,0,0,2.7-9.4c.6-2.3,1.7-6.5,4-7.7,2.7-1.3,4.4,1.7,5.2,3.8Z"/><path class="cls-2" d="M34.41,71.12a4,4,0,0,1-2.1-.4,4.45,4.45,0,0,1-2.7-2.5,4.27,4.27,0,0,1,.4-3.8c.8-1.2,1.5-2.3,2.3-3.5a29.33,29.33,0,0,0,3.3-5.6,39.41,39.41,0,0,0,2.1-6.9c.2-.8.4-1.5.6-2.3l.2-.4c.8-2.7,1.7-6.7,4.4-7.9a3.68,3.68,0,0,1,2.9-.2c1.7.8,2.9,2.9,3.5,4.4,3.6,9.8,4,10.6,4,10.8h0a11.74,11.74,0,0,1-1.5,10.9c-3.1,4.2-10.4,6.5-15.6,7.3A10.28,10.28,0,0,0,34.41,71.12Zm10-32.1a1.2,1.2,0,0,0-.8.2c-1.9,1-2.9,4.6-3.5,6.9l-.2.4c-.2.8-.4,1.5-.6,2.3a63.57,63.57,0,0,1-2.1,7.1c-1,2.1-2.3,4-3.5,6a30.24,30.24,0,0,0-2.1,3.3,3.71,3.71,0,0,0-.4,2.5,2.25,2.25,0,0,0,1.5,1.5,7.36,7.36,0,0,0,2.9.2c5.4-.8,11.9-3.1,14.4-6.5a9.79,9.79,0,0,0,1.3-9.2h0l-4-10.8c-.8-1.9-1.5-3.1-2.5-3.5C44.81,39,44.61,39,44.41,39Z"/><path class="cls-8" d="M48.41,55.42c3.6,7.5,11.1-1.3,12.1-7.7s-1.7-9.6-7.3-10L41.51,40c-5.6-.4-3.8,2.1-.2,6.3A26.61,26.61,0,0,1,48.41,55.42Z"/><path class="cls-2" d="M51.91,59c-1.3,0-3.1-.8-4.4-3.5a24.15,24.15,0,0,0-6.9-8.8h0c-2.5-2.9-4-5-3.3-6.5.6-1.3,2.5-1.3,4.2-1.2l11.7-2.3h.2c3.1.2,5.4,1.3,6.7,3.1,1.5,1.9,1.9,4.6,1.3,7.9a17.17,17.17,0,0,1-3.1,7.1c-1.7,2.5-3.6,3.8-5.6,4.2Zm-10.2-13.4a26,26,0,0,1,7.5,9.4h0c.8,1.7,1.9,2.5,3.3,2.3,2.9-.4,6.5-5.6,7.3-9.8.4-2.9.2-5.2-1.2-6.5a8.83,8.83,0,0,0-5.4-2.5l-11.7,2.3h-.2c-2.3-.2-2.7.2-2.7.2C38.61,41.32,39,42.32,41.71,45.62Z"/><path class="cls-2" d="M36.71,49a2.17,2.17,0,0,1-1-.2,2.55,2.55,0,0,1-2.1-1.7,5.48,5.48,0,0,1-5.2-.8,4.65,4.65,0,0,1-1.7-2.7c0-.6,0-1.2.4-1.5a7.52,7.52,0,0,1-4.4-6,4,4,0,0,1,1.3-3.6,3.29,3.29,0,0,1,1.9-.6h0a5.47,5.47,0,0,1-.6-3.5,7.39,7.39,0,0,1,3.1-5c2.3-1.7,4.8-2.3,6.7-1.7a3.87,3.87,0,0,1,1.9,1.2,6,6,0,0,1,3.5-1.3,14.48,14.48,0,0,1,6.3,1.3c1.2.6,4,2.1,4.8,4,.4.8.6,2.3-1.3,3.5a29.7,29.7,0,0,0-7.3,8.3,7.87,7.87,0,0,1-1.9,3.1v.8l-.2,1.9a5.12,5.12,0,0,1-2.1,3.6A2.54,2.54,0,0,1,36.71,49Zm-1.2-4.6-.4,1.7c-.2.6.2,1,1,1.2a1.62,1.62,0,0,0,1.7-.4,3.11,3.11,0,0,0,1.3-2.5l.2-1.9V41l.6-.2a4,4,0,0,0,1.5-2.5h0c.2-.2,3.5-5.8,7.9-8.8a1.33,1.33,0,0,0,.8-1.5c-.8-2.1-6.3-4.8-9.4-4.4h0a5.22,5.22,0,0,0-3.2,1.4l-1,1-.6-1.2a2.19,2.19,0,0,0-1.3-1.2c-1.3-.4-3.5.2-5.2,1.5a5,5,0,0,0-2.3,3.8,5,5,0,0,0,1.5,4l2.7,2.9-3.6-1.5c-1.2-.4-1.9-.6-2.5-.2a1.91,1.91,0,0,0-.6,2.1,5.71,5.71,0,0,0,4.2,4.8l1.3.4-1,1a2.28,2.28,0,0,0-.6,1.2c0,.6.4,1,1,1.5a3.59,3.59,0,0,0,4.4,0Z"/><path class="cls-9" d="M54.71,43.12c7.5,1.2,4.8-8.6.6-12.5s-7.1-2.1-10.4,1.7l-5.5,8.3c-3.3,3.8-1.7,5.8,2.7,3.8S48.61,42.12,54.71,43.12Z"/><path class="cls-2" d="M39.21,45.92a2.59,2.59,0,0,1-2.1-.8c-.4-.6-1-2.1,1.5-5l5.6-8.3c1.7-2.1,3.8-4,6.1-4.2,1.7-.2,3.5.8,5.4,2.3,3.1,2.9,5.6,8.6,4,11.7-.6,1-1.7,2.7-5.2,2.1h0c-6.1-.8-7.9-.6-12.1,1.3A5.78,5.78,0,0,1,39.21,45.92Zm6.5-13-5.6,8.3c-1.7,1.9-1.5,2.8-1.5,2.8.2.2,1.2.4,3.1-.6,4.4-1.9,6.5-2.3,13.1-1.3h0c1.7.2,2.9-.2,3.5-1.2,1.2-2.3-.8-7.1-3.6-9.8a6.56,6.56,0,0,0-4-1.9C49.21,29.42,47.61,30.42,45.71,32.92Z"/><path class="cls-10" d="M35.51,31.72c-1.2-4.2,1.2-8.3,5.2-8.6,4-.6,13.3,4.2,9,7.3-4.2,2.9-7.5,8.3-7.5,8.3-1.5,4.2-3.6,4.2-5-.2Z"/><path class="cls-2" d="M40,42.52h0c-1,0-2.3-.8-3.3-3.8L34.81,32a7.17,7.17,0,0,1,1-6.7,6.92,6.92,0,0,1,5-3.1,14.48,14.48,0,0,1,6.3,1.3c1.2.6,3.8,1.9,4.6,4,.4.8.6,2.3-1.3,3.5a28,28,0,0,0-7.1,8.1C42.11,41.72,40.71,42.52,40,42.52Zm-3.5-11.2,1.9,6.7c.6,2.1,1.3,2.7,1.5,2.7h0c.4,0,1-.6,1.7-2.5h0c.2-.2,3.3-5.6,7.7-8.6,1-.6.8-1.2.6-1.3-.8-2.1-6.1-4.6-9-4.2a5.49,5.49,0,0,0-3.8,2.3,5.1,5.1,0,0,0-.6,4.9Z"/><path class="cls-11" d="M38.21,41.12c1.5-1.5,2.5-1,2.1,1.3l-.2,1.7c-.4,2.3-2.1,3.8-4,3.5s-2.3-2.1-.8-3.6Z"/><path class="cls-2" d="M36.91,48.82a1.2,1.2,0,0,1-.8-.2,3,3,0,0,1-2.3-1.9q-.6-1.5,1.2-3.3l2.9-3.1c1.2-1.3,2.1-1.3,2.7-1s1.2,1,1,3.1l-.4,1.9a5.12,5.12,0,0,1-2.1,3.6A4.87,4.87,0,0,1,36.91,48.82Zm1.9-7.1-2.9,3.1c-.6.6-.8,1.2-.6,1.5a2,2,0,0,0,1,.8c.8.2,1.3,0,1.5-.4a3.11,3.11,0,0,0,1.3-2.5l.2-1.7v-1.3c.1.1-.1.1-.5.5Z"/><path class="cls-12" d="M36.31,38.52c2.9-1.2,3.8.2,1.9,3.1l-1.5,2.1c-1.9,2.7-5.2,3.6-7.5,1.9-2.1-1.7-1.5-4,1.3-5Z"/><path class="cls-2" d="M31.91,47.32a5.71,5.71,0,0,1-3.1-1,3.46,3.46,0,0,1-1.5-3.3c.2-1.3,1.3-2.5,3.3-3.3l5.6-2.1c2.3-.8,3.3-.4,3.6.2.6.6.8,1.7-.8,4L37.51,44a7,7,0,0,1-4.6,3.1A1.8,1.8,0,0,1,31.91,47.32Zm4.8-7.9-5.6,2.1a3.11,3.11,0,0,0-2.1,1.9c-.2.8.6,1.3,1,1.7a3.25,3.25,0,0,0,2.7.6,5.89,5.89,0,0,0,3.5-2.3l1.5-2.1c1-1.3,1-1.9.8-1.9h0c-.1-.4-.5-.6-1.8,0Z"/><path class="cls-13" d="M35.91,38.32c3.3,2.1,2.7,3.8-1.2,3.8h-3.1c-4,0-7.3-2.7-7.5-5.8-.2-3.3,2.3-4.2,5.6-2.1Z"/><path class="cls-2" d="M31.71,43.12c-4.4,0-8.1-2.9-8.3-6.7-.2-1.7.4-3.1,1.5-3.6,1.3-.8,3.3-.6,5.4.8l6.1,4c2.5,1.5,2.7,2.9,2.5,3.6s-1.2,1.7-4.2,1.7l-3,.2Zm-5-9.1c-.4,0-.6,0-.8.2-.8.4-.8,1.5-.8,2.1.2,2.9,3.1,5,6.5,5h3.1c1.9,0,2.5-.4,2.5-.6,0,0-.2-.8-1.7-1.7h0l-6.1-4A5,5,0,0,0,26.71,34Z"/><path class="cls-14" d="M37.51,26.52c0-4.6-4.6-4.2-8.1-1.7s-3.6,6.7-.2,9.6l6.3,5.4c3.5,2.9,5.4,1.5,4.2-2.7C40,36.92,37.61,31.22,37.51,26.52Z"/><path class="cls-2" d="M38.61,41.92a5.91,5.91,0,0,1-3.6-1.7l-6.3-5.4A6.61,6.61,0,0,1,26,29a6.84,6.84,0,0,1,3.1-5.4c2.7-1.9,5.4-2.5,7.3-1.5,1,.4,2.1,1.5,2.1,4,0,4.4,2.3,10.2,2.3,10.2v.2c.8,3.3,0,4.4-1,5C39.61,41.92,39.21,41.92,38.61,41.92Zm-4.4-18.2a7.11,7.11,0,0,0-4.2,1.7,5.4,5.4,0,0,0-2.3,3.8,5.72,5.72,0,0,0,2.1,4.2l6.3,5.4a4.16,4.16,0,0,0,2.7,1.3c.2-.2.6-1,.2-3.1-.2-.6-2.3-6.1-2.3-10.8a2.49,2.49,0,0,0-1.2-2.5C35.11,23.92,34.81,23.72,34.21,23.72Z"/><path class="cls-2" d="M147.31,26.72v8.6h-3.8v-8.6c0-2.3-1.2-3.5-3.3-3.5-1.3,0-3.5.2-3.5.2v11.9h-3.8v-21h0a3.8,3.8,0,0,1,3.8,3.8V20h4C145.21,19.82,147.31,21.72,147.31,26.72Z"/><path class="cls-2" d="M166,23.72v11.9h-8.5a7.62,7.62,0,0,1-7.7-7.9,7.62,7.62,0,0,1,7.7-7.9h4.4A4,4,0,0,1,166,23.72Zm-3.9-.4h-3.8a4.4,4.4,0,1,0,0,8.8h3.8Z"/><path class="cls-2" d="M184.21,26.72v8.6h-3.8v-8.6c0-2.3-1.2-3.5-3.3-3.5h-3.5v9a3.05,3.05,0,0,1-3.1,3.1h-.8V19.82h7.8C182.31,19.82,184.21,21.72,184.21,26.72Z"/><path class="cls-2" d="M191.91,23.32v5.4c0,2.7.4,2.9,2.5,2.9h1.9v1.3a2.8,2.8,0,0,1-2.9,2.7h-.8c-2.5,0-4.6-1.5-4.6-4.8v-7.5h0V20h0v-3.5h.4a3.48,3.48,0,0,1,3.5,3.5h4.2v3.3Z"/><path class="cls-2" d="M200,21.42h.4a3.48,3.48,0,0,1,3.5,3.5v10.6h-3.8V21.42Z"/><path class="cls-2" d="M130.21,27.12v5.6a14.41,14.41,0,0,1-9,3.1A11,11,0,0,1,110.11,25,10.74,10.74,0,0,1,121,14.42a11.74,11.74,0,0,1,8.3,3.1l-.4.4a4.72,4.72,0,0,1-4.8,1.2,8.81,8.81,0,0,0-3.3-.6,6.8,6.8,0,0,0,0,13.6,10,10,0,0,0,4.8-1.3v-1.9h-2.1a2.11,2.11,0,0,1-2.1-2.1v-1.5h6.3C129.31,25.22,130.21,26,130.21,27.12Z"/><path class="cls-2" d="M107,20h-5.2l-4.6,4.8V14.42h0a4,4,0,0,0-4,4v16.1h4v-4.2l1.3-1.3,3.6,5.6h4.8l-5.8-8.8Z"/><path class="cls-2" d="M85.31,31.22h-2.5a4.2,4.2,0,0,1-4-2.7h8.1a3.48,3.48,0,0,0,3.5-3.5h0v-2.1h0a3.8,3.8,0,0,0-3.8-3.8h-4.4c-4.8,0-7.5,3.8-7.5,7.9s2.7,7.9,7.5,7.9h8.3a3.48,3.48,0,0,0-3.5-3.5ZM83,22.12h2.5a1.9,1.9,0,0,1,1.9,1.9h0a1.61,1.61,0,0,1-1.5,1.5H79A4.64,4.64,0,0,1,83,22.12Z"/><path class="cls-2" d="M202.41,18.52c-1.2-1.2,0-4.4,0-4.4h0a4.44,4.44,0,0,1,4.4,4.4h0C206.91,18.52,203.81,19.62,202.41,18.52Z"/><text class="cls-15" transform="translate(78.49 54.31)">SE<tspan class="cls-16" x="14.51" y="0">R</tspan><tspan x="22.16" y="0" xml:space="preserve">VICES  [P] </tspan><tspan class="cls-17" x="77.16" y="0">L</tspan><tspan x="82.4" y="0">TD.</tspan></text><line class="cls-18" x1="225.51" y1="12.52" x2="225.51" y2="56.72"/></svg>